<mxfile host="app.diagrams.net" modified="2023-05-04T07:56:26.177Z" agent="Mozilla/5.0 (Windows NT 10.0; Win64; x64) AppleWebKit/537.36 (KHTML, like Gecko) Chrome/112.0.0.0 Safari/537.36" version="21.2.7" etag="bquDNRMVVajRM2IBlXZI" type="device">
  <diagram id="XBmsRkTeexYDoVoXpFaD" name="第 1 页">
    <mxGraphModel dx="797" dy="539" grid="1" gridSize="10" guides="1" tooltips="1" connect="1" arrows="1" fold="1" page="1" pageScale="1" pageWidth="827" pageHeight="1169" math="0" shadow="0">
      <root>
        <mxCell id="0" />
        <mxCell id="1" parent="0" />
        <mxCell id="hIDINZtTS6Osp7tBYlqM-32" value="" style="edgeStyle=orthogonalEdgeStyle;rounded=0;orthogonalLoop=1;jettySize=auto;html=1;" edge="1" parent="1" source="hIDINZtTS6Osp7tBYlqM-30" target="hIDINZtTS6Osp7tBYlqM-31">
          <mxGeometry relative="1" as="geometry" />
        </mxCell>
        <mxCell id="hIDINZtTS6Osp7tBYlqM-30" value="DWD&lt;br style=&quot;font-size: 14px;&quot;&gt;&lt;br style=&quot;font-size: 14px;&quot;&gt;&lt;br style=&quot;font-size: 14px;&quot;&gt;&lt;br style=&quot;font-size: 14px;&quot;&gt;&lt;br style=&quot;font-size: 14px;&quot;&gt;&lt;br style=&quot;font-size: 14px;&quot;&gt;&lt;br style=&quot;font-size: 14px;&quot;&gt;&lt;br style=&quot;font-size: 14px;&quot;&gt;&lt;br style=&quot;font-size: 14px;&quot;&gt;&lt;br style=&quot;font-size: 14px;&quot;&gt;&lt;br style=&quot;font-size: 14px;&quot;&gt;&lt;br style=&quot;font-size: 14px;&quot;&gt;&lt;br style=&quot;font-size: 14px;&quot;&gt;&lt;br style=&quot;font-size: 14px;&quot;&gt;&lt;br style=&quot;font-size: 14px;&quot;&gt;" style="rounded=0;whiteSpace=wrap;html=1;verticalAlign=top;fontStyle=1;fontSize=14;fillColor=#d5e8d4;strokeColor=#82b366;" vertex="1" parent="1">
          <mxGeometry x="380" y="150" width="260" height="243.75" as="geometry" />
        </mxCell>
        <mxCell id="hIDINZtTS6Osp7tBYlqM-27" value="" style="edgeStyle=orthogonalEdgeStyle;rounded=0;orthogonalLoop=1;jettySize=auto;html=1;" edge="1" parent="1" source="hIDINZtTS6Osp7tBYlqM-3" target="hIDINZtTS6Osp7tBYlqM-10">
          <mxGeometry relative="1" as="geometry" />
        </mxCell>
        <mxCell id="hIDINZtTS6Osp7tBYlqM-3" value="activity data" style="rounded=1;whiteSpace=wrap;html=1;fontStyle=1;fontSize=13;fillColor=#ffe6cc;strokeColor=#d79b00;" vertex="1" parent="1">
          <mxGeometry x="135" y="200" width="110" height="50" as="geometry" />
        </mxCell>
        <mxCell id="hIDINZtTS6Osp7tBYlqM-26" value="" style="edgeStyle=orthogonalEdgeStyle;rounded=0;orthogonalLoop=1;jettySize=auto;html=1;" edge="1" parent="1" source="hIDINZtTS6Osp7tBYlqM-10" target="hIDINZtTS6Osp7tBYlqM-11">
          <mxGeometry relative="1" as="geometry" />
        </mxCell>
        <mxCell id="hIDINZtTS6Osp7tBYlqM-10" value="ODS tables" style="rounded=1;whiteSpace=wrap;html=1;fontStyle=1;fontSize=13;fillColor=#d0cee2;strokeColor=#56517e;" vertex="1" parent="1">
          <mxGeometry x="270" y="202.5" width="100" height="45" as="geometry" />
        </mxCell>
        <mxCell id="hIDINZtTS6Osp7tBYlqM-25" style="edgeStyle=orthogonalEdgeStyle;rounded=0;orthogonalLoop=1;jettySize=auto;html=1;exitX=1;exitY=0.5;exitDx=0;exitDy=0;entryX=0;entryY=0;entryDx=0;entryDy=0;" edge="1" parent="1" source="hIDINZtTS6Osp7tBYlqM-11" target="hIDINZtTS6Osp7tBYlqM-14">
          <mxGeometry relative="1" as="geometry" />
        </mxCell>
        <mxCell id="hIDINZtTS6Osp7tBYlqM-11" value="fact table" style="rounded=1;whiteSpace=wrap;html=1;fontStyle=1;fontSize=13;fillColor=#dae8fc;strokeColor=#6c8ebf;" vertex="1" parent="1">
          <mxGeometry x="395" y="195" width="80" height="60" as="geometry" />
        </mxCell>
        <mxCell id="hIDINZtTS6Osp7tBYlqM-12" value="create fact" style="rounded=0;whiteSpace=wrap;html=1;fontStyle=1;fillColor=#647687;fontColor=#ffffff;strokeColor=#314354;" vertex="1" parent="1">
          <mxGeometry x="500" y="185" width="120" height="20" as="geometry" />
        </mxCell>
        <mxCell id="hIDINZtTS6Osp7tBYlqM-13" value="push fact" style="rounded=0;whiteSpace=wrap;html=1;fontStyle=1;fillColor=#647687;fontColor=#ffffff;strokeColor=#314354;" vertex="1" parent="1">
          <mxGeometry x="500" y="205" width="120" height="20" as="geometry" />
        </mxCell>
        <mxCell id="hIDINZtTS6Osp7tBYlqM-14" value="issue fact" style="rounded=0;whiteSpace=wrap;html=1;fontStyle=1;fillColor=#647687;fontColor=#ffffff;strokeColor=#314354;" vertex="1" parent="1">
          <mxGeometry x="500" y="225" width="120" height="20" as="geometry" />
        </mxCell>
        <mxCell id="hIDINZtTS6Osp7tBYlqM-15" value="......" style="rounded=0;whiteSpace=wrap;html=1;fontStyle=1;fontSize=15;fillColor=#647687;fontColor=#ffffff;strokeColor=#314354;" vertex="1" parent="1">
          <mxGeometry x="500" y="245" width="120" height="20" as="geometry" />
        </mxCell>
        <mxCell id="hIDINZtTS6Osp7tBYlqM-16" value="Data Cleaning" style="text;html=1;align=center;verticalAlign=middle;resizable=0;points=[];autosize=1;strokeColor=none;fillColor=none;fontStyle=1;fontSize=14;" vertex="1" parent="1">
          <mxGeometry x="265" y="300" width="120" height="30" as="geometry" />
        </mxCell>
        <mxCell id="hIDINZtTS6Osp7tBYlqM-19" value="" style="edgeStyle=orthogonalEdgeStyle;rounded=0;orthogonalLoop=1;jettySize=auto;html=1;" edge="1" parent="1" source="hIDINZtTS6Osp7tBYlqM-17" target="hIDINZtTS6Osp7tBYlqM-18">
          <mxGeometry relative="1" as="geometry" />
        </mxCell>
        <mxCell id="hIDINZtTS6Osp7tBYlqM-17" value="user, repo data" style="rounded=1;whiteSpace=wrap;html=1;fontStyle=1;fontSize=13;fillColor=#ffe6cc;strokeColor=#d79b00;" vertex="1" parent="1">
          <mxGeometry x="135" y="305" width="120" height="50" as="geometry" />
        </mxCell>
        <mxCell id="hIDINZtTS6Osp7tBYlqM-28" style="edgeStyle=orthogonalEdgeStyle;rounded=0;orthogonalLoop=1;jettySize=auto;html=1;exitX=1;exitY=0.5;exitDx=0;exitDy=0;entryX=0;entryY=0;entryDx=0;entryDy=0;" edge="1" parent="1" source="hIDINZtTS6Osp7tBYlqM-18" target="hIDINZtTS6Osp7tBYlqM-22">
          <mxGeometry relative="1" as="geometry" />
        </mxCell>
        <mxCell id="hIDINZtTS6Osp7tBYlqM-18" value="Dimension Table" style="rounded=1;whiteSpace=wrap;html=1;fontStyle=1;fontSize=13;fillColor=#fff2cc;strokeColor=#d6b656;" vertex="1" parent="1">
          <mxGeometry x="395" y="300" width="80" height="60" as="geometry" />
        </mxCell>
        <mxCell id="hIDINZtTS6Osp7tBYlqM-20" value="user" style="rounded=0;whiteSpace=wrap;html=1;fontStyle=1" vertex="1" parent="1">
          <mxGeometry x="500" y="290" width="120" height="20" as="geometry" />
        </mxCell>
        <mxCell id="hIDINZtTS6Osp7tBYlqM-21" value="repo" style="rounded=0;whiteSpace=wrap;html=1;fontStyle=1" vertex="1" parent="1">
          <mxGeometry x="500" y="310" width="120" height="20" as="geometry" />
        </mxCell>
        <mxCell id="hIDINZtTS6Osp7tBYlqM-22" value="issue" style="rounded=0;whiteSpace=wrap;html=1;fontStyle=1;fillColor=#fad7ac;strokeColor=#b46504;" vertex="1" parent="1">
          <mxGeometry x="500" y="330" width="120" height="20" as="geometry" />
        </mxCell>
        <mxCell id="hIDINZtTS6Osp7tBYlqM-23" value="time" style="rounded=0;whiteSpace=wrap;html=1;fontStyle=1;fontSize=13;fillColor=#fad7ac;strokeColor=#b46504;" vertex="1" parent="1">
          <mxGeometry x="500" y="350" width="120" height="20" as="geometry" />
        </mxCell>
        <mxCell id="hIDINZtTS6Osp7tBYlqM-29" value="Data &lt;br style=&quot;font-size: 14px;&quot;&gt;Cleaning" style="text;html=1;align=center;verticalAlign=middle;resizable=0;points=[];autosize=1;strokeColor=none;fillColor=none;fontStyle=1;fontSize=14;" vertex="1" parent="1">
          <mxGeometry x="334" y="242.5" width="80" height="50" as="geometry" />
        </mxCell>
        <mxCell id="hIDINZtTS6Osp7tBYlqM-31" value="DWS&lt;br&gt;&lt;br&gt;&lt;font style=&quot;font-size: 13px; font-weight: normal;&quot;&gt;aggregated data&lt;/font&gt;" style="rounded=0;whiteSpace=wrap;html=1;verticalAlign=top;fontStyle=1;fontSize=14;fillColor=#60a917;fontColor=#ffffff;strokeColor=#2D7600;" vertex="1" parent="1">
          <mxGeometry x="680" y="224.38" width="90" height="95" as="geometry" />
        </mxCell>
        <mxCell id="hIDINZtTS6Osp7tBYlqM-33" value="user" style="rounded=0;whiteSpace=wrap;html=1;fontStyle=1;fillColor=#fad7ac;strokeColor=#b46504;" vertex="1" parent="1">
          <mxGeometry x="500" y="290" width="120" height="20" as="geometry" />
        </mxCell>
        <mxCell id="hIDINZtTS6Osp7tBYlqM-34" value="repo" style="rounded=0;whiteSpace=wrap;html=1;fontStyle=1;fillColor=#fad7ac;strokeColor=#b46504;" vertex="1" parent="1">
          <mxGeometry x="500" y="310" width="120" height="20" as="geometry" />
        </mxCell>
      </root>
    </mxGraphModel>
  </diagram>
</mxfile>
